<?xml version="1.0" standalone="no"?><!DOCTYPE svg PUBLIC "-//W3C//DTD SVG 1.1//EN" "http://www.w3.org/Graphics/SVG/1.1/DTD/svg11.dtd"><svg t="1689166570413" class="icon" viewBox="0 0 1024 1024" version="1.1" xmlns="http://www.w3.org/2000/svg" p-id="2104" xmlns:xlink="http://www.w3.org/1999/xlink" width="200" height="200"><path d="M574.094818 515.38699c0 35.563396-28.224917 63.788313-63.788313 63.788313l0 0c-35.563396 0-63.788313-28.224917-63.788313-63.788313l0-445.953693c0-35.563396 28.224917-63.788313 63.788313-63.788313l0 0c35.563396 0 63.788313 28.224917 63.788313 63.788313L574.094818 515.38699z" p-id="2105" fill="#fff"></path><path d="M686.994487 179.510474l0 121.931643C779.007718 360.149945 841.102536 462.324146 841.102536 579.175303c0 180.639471-146.76957 327.409041-327.409041 327.409041s-327.409041-146.76957-327.409041-327.409041c0-116.851158 62.094818-219.589857 154.108049-277.733186l0-121.931643C184.590959 246.685777 76.771775 400.793826 76.771775 579.175303c0 240.476295 194.751929 435.228225 435.228225 435.228225 240.476295 0 435.228225-194.751929 435.228225-435.228225C948.92172 400.793826 841.102536 246.685777 686.994487 179.510474z" p-id="2106" fill="#fff"></path></svg>
